#define fawkes_width 48
#define fawkes_height 56
static unsigned char fawkes_bits[] = {
   0x80, 0x0f, 0x00, 0x00, 0xf0, 0x01, 0xe0, 0x7f, 0x00, 0x00, 0xfe, 0x07,
   0xf0, 0x1f, 0x01, 0x80, 0xf8, 0x0f, 0xf0, 0x7f, 0x00, 0x00, 0xfe, 0x0f,
   0xf8, 0xff, 0x01, 0x80, 0xff, 0x1f, 0x08, 0xfe, 0x03, 0xc0, 0x7f, 0x10,
   0x00, 0xf0, 0x07, 0xe0, 0x0f, 0x00, 0x00, 0xc0, 0x0f, 0xf0, 0x03, 0x00,
   0x00, 0x80, 0x07, 0xe0, 0x01, 0x00, 0x00, 0x00, 0x07, 0xe0, 0x00, 0x00,
   0x00, 0x00, 0x06, 0x60, 0x00, 0x00, 0x00, 0x67, 0x0c, 0x30, 0xe6, 0x00,
   0x80, 0xb8, 0x09, 0x90, 0x1d, 0x01, 0x40, 0xff, 0x03, 0xc0, 0xff, 0x02,
   0xa0, 0xff, 0x07, 0xe0, 0xff, 0x05, 0x3c, 0xff, 0x07, 0xe0, 0xff, 0x3c,
   0xf8, 0x81, 0x03, 0xc0, 0x81, 0x1f, 0x00, 0x6f, 0x10, 0x08, 0xf6, 0x00,
   0x00, 0x00, 0x10, 0x08, 0x00, 0x00, 0x00, 0x00, 0x10, 0x08, 0x00, 0x00,
   0x00, 0x00, 0x18, 0x18, 0x00, 0x00, 0x00, 0x00, 0x18, 0x18, 0x00, 0x00,
   0x00, 0x00, 0x1c, 0x38, 0x00, 0x00, 0x00, 0x00, 0x16, 0x68, 0x00, 0x00,
   0x00, 0x00, 0x12, 0x48, 0x00, 0x00, 0x00, 0x00, 0x11, 0x88, 0x00, 0x00,
   0x00, 0x70, 0x10, 0x08, 0x0e, 0x00, 0x04, 0x1c, 0x10, 0x08, 0x38, 0x20,
   0xfc, 0x03, 0x10, 0x08, 0xc0, 0x3f, 0xec, 0x00, 0xec, 0x37, 0x00, 0x37,
   0xd8, 0x00, 0x00, 0x00, 0x00, 0x1b, 0xd8, 0x01, 0xf0, 0x0f, 0x80, 0x1b,
   0x90, 0x03, 0xf8, 0x1f, 0xc0, 0x09, 0x30, 0x07, 0x7c, 0x3e, 0xe0, 0x0c,
   0x60, 0xff, 0x3f, 0xfc, 0xff, 0x06, 0x60, 0xfe, 0x1f, 0xf8, 0x7f, 0x06,
   0xc0, 0xf8, 0x1f, 0xf8, 0x1f, 0x03, 0x80, 0x01, 0xfc, 0x3f, 0x80, 0x01,
   0x80, 0x01, 0x00, 0x00, 0x80, 0x01, 0x00, 0x01, 0x00, 0x00, 0x80, 0x00,
   0x00, 0x02, 0x00, 0x00, 0x40, 0x00, 0x00, 0x04, 0x00, 0x00, 0x20, 0x00,
   0x00, 0x00, 0xe0, 0x07, 0x00, 0x00, 0x00, 0x00, 0xc0, 0x03, 0x00, 0x00,
   0x00, 0x00, 0xc0, 0x03, 0x00, 0x00, 0x00, 0x00, 0xc0, 0x03, 0x00, 0x00,
   0x00, 0x00, 0xc0, 0x03, 0x00, 0x00, 0x00, 0x00, 0xc0, 0x03, 0x00, 0x00,
   0x00, 0x00, 0xc0, 0x03, 0x00, 0x00, 0x00, 0x00, 0xc0, 0x03, 0x00, 0x00,
   0x00, 0x00, 0xc0, 0x03, 0x00, 0x00, 0x00, 0x00, 0xc0, 0x03, 0x00, 0x00,
   0x00, 0x00, 0xc0, 0x03, 0x00, 0x00, 0x00, 0x00, 0xc0, 0x03, 0x00, 0x00,
   0x00, 0x00, 0x80, 0x01, 0x00, 0x00, 0x00, 0x00, 0x80, 0x01, 0x00, 0x00 };
