#define fawkes_width 56
#define fawkes_height 56
static unsigned char fawkes_bits[] = {
   0x00, 0x3f, 0x00, 0x00, 0x00, 0xfc, 0x00, 0xc0, 0xff, 0x03, 0x00, 0xc0,
   0xff, 0x03, 0xe0, 0x7f, 0x04, 0x00, 0x20, 0xfe, 0x07, 0xf0, 0xff, 0x03,
   0x00, 0xc0, 0xff, 0x0f, 0xf0, 0xff, 0x0f, 0x00, 0xf0, 0xff, 0x0f, 0x18,
   0xf8, 0x1f, 0x00, 0xf8, 0x1f, 0x18, 0x00, 0xc0, 0x3f, 0x00, 0xfc, 0x03,
   0x00, 0x00, 0x00, 0x7f, 0x00, 0xfe, 0x00, 0x00, 0x00, 0x00, 0x3c, 0x00,
   0x3c, 0x00, 0x00, 0x00, 0x00, 0x38, 0x00, 0x1c, 0x00, 0x00, 0x00, 0x00,
   0x30, 0x00, 0x0c, 0x00, 0x00, 0x00, 0x9e, 0x63, 0x00, 0xc6, 0x79, 0x00,
   0x00, 0xe3, 0x4c, 0x00, 0x32, 0xc7, 0x00, 0x80, 0xfc, 0x1f, 0x00, 0xf8,
   0x3f, 0x01, 0x40, 0xff, 0x3f, 0x00, 0xfc, 0xff, 0x02, 0x78, 0xfe, 0x3f,
   0x81, 0xfc, 0x7f, 0x1e, 0xfc, 0x03, 0x1c, 0x81, 0x38, 0xc0, 0x3f, 0x00,
   0xbe, 0x01, 0x81, 0x80, 0x7d, 0x00, 0x00, 0x00, 0x00, 0x81, 0x00, 0x00,
   0x00, 0x00, 0x00, 0x80, 0x81, 0x01, 0x00, 0x00, 0x00, 0x00, 0x80, 0x81,
   0x01, 0x00, 0x00, 0x00, 0x00, 0xc0, 0x81, 0x03, 0x00, 0x00, 0x00, 0x00,
   0xe0, 0x81, 0x07, 0x00, 0x00, 0x00, 0x00, 0xb0, 0x81, 0x0d, 0x00, 0x00,
   0x00, 0x00, 0x90, 0x81, 0x09, 0x00, 0x00, 0x00, 0x00, 0x88, 0x81, 0x11,
   0x00, 0x00, 0x00, 0xc0, 0x81, 0x00, 0x81, 0x03, 0x00, 0x0c, 0x70, 0x80,
   0x00, 0x01, 0x0e, 0x30, 0xfc, 0x0f, 0x80, 0x81, 0x01, 0xf0, 0x3f, 0xd8,
   0x01, 0x60, 0xff, 0x06, 0x80, 0x1b, 0x98, 0x03, 0x00, 0x00, 0x00, 0xc0,
   0x19, 0x30, 0x07, 0x80, 0xff, 0x01, 0xe0, 0x0c, 0x30, 0x0f, 0xc0, 0xff,
   0x03, 0xf0, 0x0c, 0x60, 0x1e, 0xe0, 0xe7, 0x07, 0x78, 0x06, 0xe0, 0xfc,
   0xff, 0xc3, 0xff, 0x3f, 0x07, 0xc0, 0xf9, 0xff, 0x81, 0xff, 0x9f, 0x03,
   0x80, 0xf3, 0xff, 0x00, 0xff, 0xcf, 0x01, 0x00, 0x03, 0xe0, 0xff, 0x07,
   0xc0, 0x00, 0x00, 0x03, 0x00, 0x00, 0x00, 0xc0, 0x00, 0x00, 0x06, 0x00,
   0x00, 0x00, 0x60, 0x00, 0x00, 0x0c, 0x00, 0x00, 0x00, 0x30, 0x00, 0x00,
   0x08, 0x00, 0x00, 0x00, 0x10, 0x00, 0x00, 0x10, 0x00, 0x7e, 0x00, 0x08,
   0x00, 0x00, 0x20, 0x00, 0x3c, 0x00, 0x04, 0x00, 0x00, 0x00, 0x00, 0x3c,
   0x00, 0x00, 0x00, 0x00, 0x00, 0x00, 0x3c, 0x00, 0x00, 0x00, 0x00, 0x00,
   0x00, 0x3c, 0x00, 0x00, 0x00, 0x00, 0x00, 0x00, 0x3c, 0x00, 0x00, 0x00,
   0x00, 0x00, 0x00, 0x7e, 0x00, 0x00, 0x00, 0x00, 0x00, 0x00, 0x3c, 0x00,
   0x00, 0x00, 0x00, 0x00, 0x00, 0x3c, 0x00, 0x00, 0x00, 0x00, 0x00, 0x00,
   0x3c, 0x00, 0x00, 0x00, 0x00, 0x00, 0x00, 0x3c, 0x00, 0x00, 0x00, 0x00,
   0x00, 0x00, 0x3c, 0x00, 0x00, 0x00, 0x00, 0x00, 0x00, 0x3c, 0x00, 0x00,
   0x00, 0x00, 0x00, 0x00, 0x18, 0x00, 0x00, 0x00 };
