#define heart_width 56
#define heart_height 48
static unsigned char heart_bits[] = {
   0x00, 0x00, 0x00, 0x00, 0x00, 0x00, 0x00, 0x00, 0x00, 0x00, 0x00, 0x00,
   0x00, 0x00, 0x00, 0xfe, 0x0f, 0x00, 0xf0, 0x7f, 0x00, 0x80, 0xff, 0x3f,
   0x00, 0xfc, 0xff, 0x01, 0xe0, 0xff, 0xff, 0x00, 0xff, 0xff, 0x07, 0xf0,
   0xff, 0xff, 0x81, 0xff, 0xff, 0x0f, 0xf8, 0xff, 0xff, 0xc3, 0xff, 0xff,
   0x1f, 0xfc, 0xff, 0xff, 0xe7, 0xff, 0xff, 0x3f, 0xfc, 0xff, 0xff, 0xff,
   0xff, 0xff, 0x3f, 0xfe, 0xff, 0xff, 0xff, 0xff, 0xff, 0x7f, 0xfe, 0xff,
   0xff, 0xff, 0xff, 0xff, 0x7f, 0xff, 0xff, 0xff, 0xff, 0xff, 0xff, 0xff,
   0xff, 0xff, 0xff, 0xff, 0xff, 0xff, 0xff, 0xff, 0xff, 0xff, 0xff, 0xff,
   0xff, 0xff, 0xff, 0xff, 0xff, 0xff, 0xff, 0xff, 0xff, 0xff, 0xff, 0xff,
   0xff, 0xff, 0xff, 0xff, 0xff, 0xff, 0xff, 0xff, 0xff, 0xff, 0xff, 0xff,
   0xff, 0xff, 0xff, 0xff, 0xff, 0xff, 0xfe, 0xff, 0xff, 0xff, 0xff, 0xff,
   0x7f, 0xfe, 0xff, 0xff, 0xff, 0xff, 0xff, 0x7f, 0xfe, 0xff, 0xff, 0xff,
   0xff, 0xff, 0x7f, 0xfc, 0xff, 0xff, 0xff, 0xff, 0xff, 0x3f, 0xfc, 0xff,
   0xff, 0xff, 0xff, 0xff, 0x3f, 0xf8, 0xff, 0xff, 0xff, 0xff, 0xff, 0x1f,
   0xf0, 0xff, 0xff, 0xff, 0xff, 0xff, 0x0f, 0xf0, 0xff, 0xff, 0xff, 0xff,
   0xff, 0x07, 0xe0, 0xff, 0xff, 0xff, 0xff, 0xff, 0x03, 0xc0, 0xff, 0xff,
   0xff, 0xff, 0xff, 0x01, 0x80, 0xff, 0xff, 0xff, 0xff, 0xff, 0x00, 0x00,
   0xfe, 0xff, 0xff, 0xff, 0x7f, 0x00, 0x00, 0xfc, 0xff, 0xff, 0xff, 0x3f,
   0x00, 0x00, 0xf8, 0xff, 0xff, 0xff, 0x0f, 0x00, 0x00, 0xf0, 0xff, 0xff,
   0xff, 0x07, 0x00, 0x00, 0xc0, 0xff, 0xff, 0xff, 0x03, 0x00, 0x00, 0x80,
   0xff, 0xff, 0xff, 0x01, 0x00, 0x00, 0x00, 0xff, 0xff, 0x7f, 0x00, 0x00,
   0x00, 0x00, 0xfc, 0xff, 0x3f, 0x00, 0x00, 0x00, 0x00, 0xf8, 0xff, 0x1f,
   0x00, 0x00, 0x00, 0x00, 0xf0, 0xff, 0x0f, 0x00, 0x00, 0x00, 0x00, 0xe0,
   0xff, 0x07, 0x00, 0x00, 0x00, 0x00, 0xc0, 0xff, 0x01, 0x00, 0x00, 0x00,
   0x00, 0x80, 0xff, 0x00, 0x00, 0x00, 0x00, 0x00, 0x00, 0x7f, 0x00, 0x00,
   0x00, 0x00, 0x00, 0x00, 0x7e, 0x00, 0x00, 0x00, 0x00, 0x00, 0x00, 0x3c,
   0x00, 0x00, 0x00, 0x00, 0x00, 0x00, 0x18, 0x00, 0x00, 0x00, 0x00, 0x00,
   0x00, 0x00, 0x00, 0x00, 0x00, 0x00, 0x00, 0x00, 0x00, 0x00, 0x00, 0x00 };
